HIERARCHY
ROOT Hips
{
	OFFSET -0.001795 -0.223333 0.028219
	CHANNELS 6 Xposition Yposition Zposition Zrotation Yrotation Xrotation 
	JOINT LeftUpLeg
	{
		OFFSET 0.069520 -0.091406 -0.006815
		CHANNELS 3 Zrotation Yrotation Xrotation
		JOINT LeftLeg
		{
			OFFSET 0.034277 -0.375199 -0.004496
			CHANNELS 3 Zrotation Yrotation Xrotation
			JOINT LeftFoot
			{
				OFFSET -0.013596 -0.397961 -0.043693
				CHANNELS 3 Zrotation Yrotation Xrotation
				JOINT LeftToe
				{
					OFFSET 0.026358 -0.055791 0.119288
					CHANNELS 3 Zrotation Yrotation Xrotation
					End Site
					{
						OFFSET 0.000000 0.000000 0.000000
					}
				}
			}
		}
	}
	JOINT RightUpLeg
	{
		OFFSET -0.067670 -0.090522 -0.004320
		CHANNELS 3 Zrotation Yrotation Xrotation
		JOINT RightLeg
		{
			OFFSET -0.038290 -0.382569 -0.008850
			CHANNELS 3 Zrotation Yrotation Xrotation
			JOINT RightFoot
			{
				OFFSET 0.015774 -0.398415 -0.042312
				CHANNELS 3 Zrotation Yrotation Xrotation
				JOINT RightToe
				{
					OFFSET -0.025372 -0.048144 0.123348
					CHANNELS 3 Zrotation Yrotation Xrotation
					End Site
					{
						OFFSET 0.000000 0.000000 0.000000
					}
				}
			}
		}
	}
	JOINT Spine
	{
		OFFSET -0.002533 0.108963 -0.026696
		CHANNELS 3 Zrotation Yrotation Xrotation
		JOINT Spine1
		{
			OFFSET 0.005487 0.135180 0.001092
			CHANNELS 3 Zrotation Yrotation Xrotation
			JOINT Spine2
			{
				OFFSET 0.001457 0.052922 0.025425
				CHANNELS 3 Zrotation Yrotation Xrotation
				JOINT Neck
				{
					OFFSET -0.002778 0.213870 -0.042857
					CHANNELS 3 Zrotation Yrotation Xrotation
					JOINT Head
					{
						OFFSET 0.005152 0.064970 0.051349
						CHANNELS 3 Zrotation Yrotation Xrotation
						End Site
						{
							OFFSET 0.000000 0.000000 0.000000
						}
					}
				}
				JOINT LeftShoulder
				{
					OFFSET 0.078845 0.121749 -0.034090
					CHANNELS 3 Zrotation Yrotation Xrotation
					JOINT LeftArm
					{
						OFFSET 0.090977 0.030469 -0.008868
						CHANNELS 3 Zrotation Yrotation Xrotation
						JOINT LeftForeArm
						{
							OFFSET 0.259612 -0.012772 -0.027456
							CHANNELS 3 Zrotation Yrotation Xrotation
							JOINT LeftHand
							{
								OFFSET 0.249234 0.008986 -0.001171
								CHANNELS 3 Zrotation Yrotation Xrotation
								End Site
								{
									OFFSET 0.000000 0.000000 0.000000
								}
							}
						}
					}
				}
				JOINT RightShoulder
				{
					OFFSET -0.081759 0.118833 -0.038615
					CHANNELS 3 Zrotation Yrotation Xrotation
					JOINT RightArm
					{
						OFFSET -0.096012 0.032551 -0.009143
						CHANNELS 3 Zrotation Yrotation Xrotation
						JOINT RightForeArm
						{
							OFFSET -0.253742 -0.013329 -0.021401
							CHANNELS 3 Zrotation Yrotation Xrotation
							JOINT RightHand
							{
								OFFSET -0.255298 0.007772 -0.005559
								CHANNELS 3 Zrotation Yrotation Xrotation
								End Site
								{
									OFFSET 0.000000 0.000000 0.000000
								}
							}
						}
					}
				}
			}
		}
	}
}
MOTION
Frames: 10
Frame Time: 0.050000
0.000000 0.914323 0.000000 1.048374 11.538925 -11.502034 -7.708917 1.113864 8.732863 1.946082 -0.980379 11.566625 2.162719 0.712933 -6.450698 0.000000 0.000000 0.000000 -0.796945 0.963797 -11.719957 -5.345046 2.393989 59.755915 -0.329699 -1.846344 2.529663 0.000000 0.000000 0.000000 1.166163 -0.519397 9.489675 3.608912 -1.857132 0.671496 -3.814534 -0.865664 9.259182 3.497325 -1.710054 -7.290711 0.000000 0.000000 0.000000 -21.185444 -13.736821 3.934356 -44.609419 -17.184259 0.982560 3.357296 -29.494848 -0.079336 0.000000 0.000000 0.000000 17.162116 5.901477 2.895929 56.941991 4.918105 -3.996130 -2.462877 30.558487 0.899260 0.000000 0.000000 0.000000 
0.006328 0.916630 -0.000121 0.974650 11.676189 -11.444092 -7.629783 1.587111 12.680772 1.404238 -0.594940 7.838172 1.902315 -1.086446 -8.166599 0.000000 0.000000 0.000000 1.874369 1.752198 -16.582082 -9.011120 4.847049 57.588774 -1.365375 -4.278221 2.665131 0.000000 0.000000 0.000000 1.387417 -0.448690 8.291887 3.951185 -1.944107 -0.134341 -4.224845 -2.722433 11.958288 2.192839 -0.645213 -9.172749 0.000000 0.000000 0.000000 -21.547134 -14.197287 4.812435 -44.169784 -19.166209 1.304759 6.363400 -29.769709 -0.713247 0.000000 0.000000 0.000000 15.598341 5.480325 2.350333 59.744552 3.249273 -5.136310 -3.364934 29.953566 0.633345 0.000000 0.000000 0.000000 
0.011841 0.914781 0.000081 0.304147 10.743576 -12.006868 -8.220514 1.941037 15.012484 2.761009 -0.769259 7.184903 1.624617 -2.541452 -9.386948 0.000000 0.000000 0.000000 2.540572 2.309784 -21.372435 -7.563469 4.031871 52.592489 -1.427508 -3.103875 -1.446495 0.000000 0.000000 0.000000 2.769149 -0.650237 10.131260 3.629225 -1.663556 -1.315747 -4.282973 -4.756998 11.488696 -0.499633 1.074023 -8.657919 0.000000 0.000000 0.000000 -19.406083 -13.511508 5.112054 -45.217426 -21.439452 1.988908 4.292346 -29.866563 -0.006459 0.000000 0.000000 0.000000 13.472888 4.472446 1.355152 59.566598 -0.140598 -6.753184 0.212801 28.352149 1.245908 0.000000 0.000000 0.000000 
0.016780 0.914508 0.002009 0.482304 11.336539 -13.017387 -9.022374 2.319559 17.734600 2.903563 -0.730582 6.372859 1.144097 -4.596754 -10.363409 0.000000 0.000000 0.000000 3.546617 2.606613 -22.472694 -7.495919 3.566918 44.118350 -0.182481 -0.221118 -0.791855 0.000000 0.000000 0.000000 3.049222 -0.661037 10.143795 4.281976 -2.109553 -0.227757 -5.153567 -6.362228 10.622985 -1.841215 1.921286 -8.027568 0.000000 0.000000 0.000000 -19.523874 -12.120939 4.671744 -46.507015 -21.128515 1.949821 4.360516 -32.282843 0.063544 0.000000 0.000000 0.000000 13.595217 4.057036 0.900237 58.616766 -4.179569 -8.536116 1.008072 29.412236 1.387955 0.000000 0.000000 0.000000 
0.021416 0.909409 0.005696 1.237594 11.039035 -12.874143 -10.587281 2.732872 19.059430 3.284886 -0.788896 6.344588 1.421512 -4.587482 -11.376863 0.000000 0.000000 0.000000 4.694105 2.871125 -22.506342 -6.688608 2.909021 34.052933 0.174365 -0.019632 0.997836 0.000000 0.000000 0.000000 3.445165 -0.637811 9.685579 3.879336 -1.962737 0.322943 -6.371585 -7.088435 10.010768 -1.790488 1.827351 -8.103692 0.000000 0.000000 0.000000 -18.828398 -13.259609 5.431909 -47.552155 -21.295517 2.117668 5.293852 -32.694381 -0.154904 0.000000 0.000000 0.000000 13.763064 3.322809 0.394879 58.316749 -6.645648 -9.606248 1.123648 28.092640 1.286209 0.000000 0.000000 0.000000 
0.025506 0.904571 0.010866 1.784116 12.717174 -13.433603 -11.462976 3.051944 21.329174 4.187667 -0.937392 6.376210 1.487630 -5.414882 -12.340641 0.000000 0.000000 0.000000 4.104295 2.496057 -20.452895 -5.182668 1.954670 27.267296 -0.068315 -0.443958 0.503118 0.000000 0.000000 0.000000 3.142447 -0.634570 9.774998 4.021949 -2.013238 0.126775 -6.935966 -8.655113 10.095557 -1.908605 1.782713 -6.449559 0.000000 0.000000 0.000000 -19.118508 -13.331545 5.648034 -48.164302 -22.298860 2.545899 4.954858 -32.651170 -0.011038 0.000000 0.000000 0.000000 14.624666 2.789090 -0.038076 57.584831 -8.855099 -10.540467 0.697451 27.862613 1.136852 0.000000 0.000000 0.000000 
0.028887 0.900631 0.017055 1.449846 13.365553 -14.019488 -11.123372 3.195987 23.488530 4.162899 -0.909051 6.108892 1.808750 -5.534712 -13.420027 0.000000 0.000000 0.000000 4.596838 2.474470 -19.349428 -5.153737 1.835943 24.799987 -0.139923 -0.904596 1.450890 0.000000 0.000000 0.000000 3.533083 -0.598050 9.196425 4.541545 -2.209535 -0.476792 -7.964204 -9.203779 10.549274 -0.916218 0.978849 -5.798379 0.000000 0.000000 0.000000 -19.256871 -13.374361 5.684616 -48.782042 -21.572925 2.266162 3.377872 -31.959355 0.436496 0.000000 0.000000 0.000000 14.934192 1.421242 -0.714269 56.825692 -10.410738 -11.126088 2.135117 27.631313 1.454342 0.000000 0.000000 0.000000 
0.031341 0.897605 0.023589 1.048479 13.148442 -14.165743 -10.667641 3.251122 24.580843 4.063165 -0.944123 6.682763 2.385064 -5.241215 -14.972323 0.000000 0.000000 0.000000 5.212980 2.463507 -18.051537 -5.525403 1.913995 22.569442 0.566583 0.292930 2.986950 0.000000 0.000000 0.000000 3.630834 -0.498976 8.085796 5.002964 -2.442137 -0.516235 -8.131360 -9.615594 10.698644 -0.980628 0.942677 -4.715870 0.000000 0.000000 0.000000 -19.017556 -12.854201 5.522426 -50.252414 -21.336975 2.249595 2.906671 -30.271055 0.574298 0.000000 0.000000 0.000000 14.687179 1.142814 -0.905078 56.548116 -10.655922 -11.186828 1.714339 27.281031 1.314849 0.000000 0.000000 0.000000 
0.032843 0.895783 0.029730 0.441261 12.844678 -14.109920 -10.037708 3.214915 25.194502 4.099260 -1.026009 7.529208 2.602649 -5.549028 -16.043272 0.000000 0.000000 0.000000 6.325164 2.595625 -17.431070 -6.468714 2.222740 22.524524 0.950239 1.049510 3.397431 0.000000 0.000000 0.000000 4.201530 -0.409565 6.896328 4.916170 -2.331929 -1.027109 -8.214924 -9.879423 10.980154 -0.019408 0.130249 -4.234004 0.000000 0.000000 0.000000 -20.094141 -12.640163 5.580232 -50.402139 -19.602894 1.434633 2.307923 -30.141731 0.759777 0.000000 0.000000 0.000000 15.085287 0.227375 -1.438669 55.471844 -10.485252 -10.868709 2.942585 27.096978 1.556646 0.000000 0.000000 0.000000 
0.033533 0.896372 0.035341 -0.396735 12.225032 -14.355008 -9.353669 3.169334 25.699348 4.189661 -1.160492 8.806240 2.564992 -5.053087 -15.524579 0.000000 0.000000 0.000000 7.417805 2.752012 -17.097051 -6.776560 2.369952 23.181282 1.771530 2.616001 4.219953 0.000000 0.000000 0.000000 4.517402 -0.319414 5.879320 5.407106 -2.634382 -0.632660 -7.975456 -10.084109 10.328698 0.487063 -0.315953 -3.858022 0.000000 0.000000 0.000000 -20.905647 -11.913750 5.357611 -51.360764 -17.660314 0.644752 1.588060 -29.648893 0.961321 0.000000 0.000000 0.000000 15.127416 0.285219 -1.529064 55.190035 -10.247463 -10.632124 3.057281 27.365332 1.554682 0.000000 0.000000 0.000000 
